# xmcd
#
# Track frame offsets:
#	150
#	16321
#	33696
#	57323
#	71875
#	86127
#	100754
#	118681
#	133083
#	146510
#	160012
#	176889
#	190616
#	210868
#	225495
#	246047
#	264499
#	281001
#
# Disc length: 3981 seconds
#
# Revision: 2
# Processed by: cddbd v1.5.2PL0 Copyright (c) Steve Scherf et al.
# Submitted via: EasyCDDAExtractor 10.0.2.1
#
DISCID=000f8b12
DTITLE=多个音乐家 - 校园民谣
DYEAR=1900
DGENRE=Blues
TTITLE0=睡在我上铺的兄弟
TTITLE1=同桌的你
TTITLE2=流浪歌手的情人
TTITLE3=校园的早晨
TTITLE4=新鞋子旧鞋子
TTITLE5=一把小雨伞
TTITLE6=踏着夕阳归去
TTITLE7=寂寞是因为思念谁
TTITLE8=你带来一片温柔
TTITLE9=与我同行
TTITLE10=等人就象在喝酒
TTITLE11=故事里的树
TTITLE12=离开
TTITLE13=脚印
TTITLE14=那天
TTITLE15=清晨
TTITLE16=上班族
TTITLE17=小雨中的回忆
EXTD=
EXTT0=
EXTT1=
EXTT2=
EXTT3=
EXTT4=
EXTT5=
EXTT6=
EXTT7=
EXTT8=
EXTT9=
EXTT10=
EXTT11=
EXTT12=
EXTT13=
EXTT14=
EXTT15=
EXTT16=
EXTT17=
PLAYORDER=
